# The.Transporter.2002.1080p.BluRay.REMUX.MPEG-2.DTS-HD.MA.5.1-FraMeSToR

```text
General
Unique ID                      : 238491057492019482019482019482019482104
Complete name                  : The.Transporter.2002.1080p.BluRay.REMUX.MPEG-2.DTS-HD.MA.5.1-FraMeSToR.mkv
Format                         : Matroska
Format version                 : Version 4
File size                      : 15.6 GiB
Duration                       : 1 h 32 min
Overall bit rate mode          : Variable
Overall bit rate               : 24.2 Mb/s
Movie name                     : The Transporter (2002) - Blu-ray Remux
Encoded date                   : UTC 2026-07-20 22:07:34
Writing application            : mkvmerge v88.0.0 ('The Catalyst') 64-bit
Writing library                : libebml v1.4.5 + libmatroska v1.7.1

Video
ID                             : 1
Format                         : MPEG Video
Format version                 : Version 2
Format profile                 : Main@High
Internet media type            : video/MPV
Codec ID                       : V_MPEG2
Codec ID/Info                  : MPEG 1 or 2 Video
Duration                       : 1 h 32 min
Bit rate mode                  : Variable
Bit rate                       : 18.8 Mb/s
Maximum bit rate               : 28.0 Mb/s
Width                          : 1 920 pixels
Height                         : 1 080 pixels
Display aspect ratio           : 16:9
Frame rate mode                : Constant
Frame rate                     : 23.976 (24000/1001) FPS
Color space                    : YUV
Chroma subsampling             : 4:2:0
Bit depth                      : 8 bits
Scan type                      : Progressive
Compression mode               : Lossy
Time code first frame          : 00:00:00:00
Language                       : English
Default                        : Yes
Forced                         : No

Audio #1
ID                             : 2
Format                         : DTS XLL
Format/Info                    : Digital Theater Systems
Commercial name                : DTS-HD Master Audio
Codec ID                       : A_DTS
Duration                       : 1 h 32 min
Bit rate mode                  : Variable
Bit rate                       : 4 122 kb/s
Channel(s)                     : 6 channels
Channel layout                 : C L R Ls Rs LFE
Sampling rate                  : 48.0 kHz
Frame rate                     : 93.750 FPS (512 SPF)
Bit depth                      : 24 bits
Compression mode               : Lossless
Stream size                    : 2.66 GiB (17%)
Title                          : English DTS-HD MA 5.1
Language                       : English
Default                        : Yes
Forced                         : No

Audio #2
ID                             : 3
Format                         : AC-3
Format/Info                    : Audio Coding 3
Commercial name                : Dolby Digital
Codec ID                       : A_AC3
Duration                       : 1 h 32 min
Bit rate mode                  : Constant
Bit rate                       : 448 kb/s
Channel(s)                     : 6 channels
Channel layout                 : L C R Ls Rs LFE
Sampling rate                  : 48.0 kHz
Frame rate                     : 31.250 FPS (1536 SPF)
Compression mode               : Lossy
Stream size                    : 295 MiB (2%)
Title                          : French Dolby Digital 5.1
Language                       : French
Default                        : No
Forced                         : No

Audio #3
ID                             : 4
Format                         : AC-3
Format/Info                    : Audio Coding 3
Commercial name                : Dolby Digital
Codec ID                       : A_AC3
Duration                       : 1 h 32 min
Bit rate mode                  : Constant
Bit rate                       : 448 kb/s
Channel(s)                     : 6 channels
Channel layout                 : L C R Ls Rs LFE
Sampling rate                  : 48.0 kHz
Frame rate                     : 31.250 FPS (1536 SPF)
Compression mode               : Lossy
Stream size                    : 295 MiB (2%)
Title                          : Spanish Dolby Digital 5.1
Language                       : Spanish
Default                        : No
Forced                         : No

Text #1
ID                             : 5
Format                         : PGS
Muxing mode                    : zlib
Codec ID                       : S_HDMV/PGS
Codec ID/Info                  : Picture based subtitle format used on BDs/HD-DVDs
Duration                       : 1 h 29 min
Bit rate                       : 32.4 kb/s
Count of elements              : 2180
Stream size                    : 20.8 MiB (0%)
Title                          : English SDH
Language                       : English
Default                        : No
Forced                         : No

Text #2
ID                             : 6
Format                         : PGS
Muxing mode                    : zlib
Codec ID                       : S_HDMV/PGS
Codec ID/Info                  : Picture based subtitle format used on BDs/HD-DVDs
Duration                       : 1 h 28 min
Bit rate                       : 28.1 kb/s
Count of elements              : 1840
Stream size                    : 17.7 MiB (0%)
Title                          : Spanish
Language                       : Spanish
Default                        : No
Forced                         : No
```
